<svg width="729" height="183" viewBox="0 0 729 183" fill="none" xmlns="http://www.w3.org/2000/svg">
<path d="M38.9853 74.1892C39.8543 74.6897 39.8543 75.5039 38.9853 76.0044C38.1163 76.5049 36.709 76.5049 35.8417 76.0044C34.9727 75.5039 34.9727 74.6897 35.8417 74.1892C36.709 73.6869 38.1163 73.6869 38.9853 74.1892Z" fill="#FCCC6B"/>
<path d="M43.8833 71.3607C44.7523 71.8612 44.7523 72.6754 43.8833 73.1759C43.0142 73.6764 41.607 73.6764 40.7397 73.1759C39.8706 72.6754 39.8706 71.8612 40.7397 71.3607C41.607 70.8602 43.0142 70.8602 43.8833 71.3607Z" fill="#FCCC6B"/>
<path d="M48.7782 68.5349C49.6473 69.0354 49.6473 69.8495 48.7782 70.35C47.9092 70.8523 46.502 70.8523 45.6347 70.35C44.7657 69.8495 44.7657 69.0354 45.6347 68.5349C46.5037 68.0326 47.9109 68.0326 48.7782 68.5349Z" fill="#FCCC6B"/>
<path d="M189.139 126.633V111.781H150.827L105.529 85.6297C99.4837 82.1399 88.9252 82.5769 81.9438 86.6067L38.3399 111.781H0V127.473H0.0308099C-0.140596 129.835 1.17581 132.115 4.08113 133.793L83.6407 179.726C89.6862 183.216 100.246 182.779 107.226 178.749L183.395 134.773C187.422 132.449 189.365 129.437 189.139 126.633Z" fill="#1D1D1D"/>
<path d="M105.529 85.6301C102.623 83.952 98.6708 83.191 94.5776 83.2921V182.066C99.0033 181.96 103.597 180.846 107.226 178.75L183.395 134.774C187.421 132.449 189.365 129.438 189.139 126.634V111.781H150.826L105.529 85.6301Z" fill="url(#paint0_linear_864_147)"/>
<path d="M83.6411 164.034L4.08148 118.101C-1.96399 114.611 -1.20636 108.514 5.77498 104.485L81.9442 60.5087C88.9255 56.479 99.4841 56.0402 105.53 59.5317L185.087 105.465C191.133 108.955 190.375 115.052 183.394 119.081L107.225 163.057C100.247 167.087 89.6865 167.526 83.6411 164.034Z" fill="#161616"/>
<path opacity="0.5" d="M83.6411 164.034L4.08148 118.101C-1.96399 114.611 -1.20636 108.514 5.77498 104.485L81.9442 60.5087C88.9255 56.479 99.4841 56.0402 105.53 59.5317L185.087 105.465C191.133 108.955 190.375 115.052 183.394 119.081L107.225 163.057C100.247 167.087 89.6865 167.526 83.6411 164.034Z" fill="url(#paint1_linear_864_147)"/>
<path d="M85.7672 153.881L21.6668 116.873C16.7954 114.06 17.4073 109.149 23.0311 105.901L84.4011 70.4697C90.0249 67.2216 98.5335 66.8702 103.403 69.6812L167.504 106.689C172.375 109.502 171.763 114.413 166.139 117.661L104.769 153.092C99.1454 156.34 90.6368 156.694 85.7672 153.881Z" fill="#F0F0F0"/>
<path d="M23.0316 110.703L84.4015 75.2716C90.0253 72.0235 98.5339 71.6721 103.404 74.4832L167.504 111.491C168.707 112.186 169.573 113.008 170.113 113.903C171.527 111.304 170.711 108.543 167.504 106.69L103.404 69.6821C98.5322 66.8693 90.0253 67.2224 84.4015 70.4688L23.0316 105.9C18.7961 108.346 17.406 111.735 19.0584 114.46C19.7903 113.115 21.1101 111.812 23.0316 110.703Z" fill="white"/>
<path opacity="0.5" d="M86.3132 164.034L6.75363 118.101C0.708155 114.611 -0.736834 109.484 8.44707 104.484L84.6162 60.5086C88.0495 58.5272 92.3467 57.4182 96.5495 57.2142C91.5531 56.988 86.1126 58.1021 81.9457 60.5086L5.7766 104.484C-1.20303 108.514 -1.96237 114.611 4.0831 118.101L83.6426 164.034C86.7142 165.808 90.9531 166.562 95.2948 166.351C91.9216 166.199 88.7489 165.441 86.3132 164.034Z" fill="url(#paint2_linear_864_147)"/>
<path opacity="0.5" d="M183.395 125.716L107.226 169.692C100.246 173.721 89.6862 174.16 83.6407 170.669L4.08113 124.735C1.17581 123.059 -0.140596 120.778 0.0308099 118.417H0V121.669H0.0308099C-0.140596 124.031 1.17581 126.31 4.08113 127.989L83.6407 173.922C89.6862 177.412 100.246 176.975 107.226 172.945L183.395 128.969C187.422 126.645 189.365 123.633 189.139 120.831V117.579C189.365 120.378 187.422 123.39 183.395 125.716Z" fill="url(#paint3_linear_864_147)"/>
<path d="M169.581 121.383C170.45 121.883 170.45 122.697 169.581 123.198C168.714 123.698 167.305 123.698 166.438 123.198C165.569 122.697 165.569 121.883 166.438 121.383C167.305 120.88 168.714 120.88 169.581 121.383Z" fill="white"/>
<path d="M174.478 118.553C175.347 119.054 175.347 119.868 174.478 120.368C173.609 120.869 172.202 120.869 171.335 120.368C170.467 119.866 170.467 119.054 171.335 118.553C172.202 118.053 173.611 118.053 174.478 118.553Z" fill="white"/>
<path d="M179.375 115.727C180.243 116.227 180.243 117.042 179.375 117.542C178.506 118.043 177.099 118.043 176.232 117.542C175.363 117.042 175.363 116.227 176.232 115.727C177.099 115.226 178.506 115.226 179.375 115.727Z" fill="white"/>
<path opacity="0.5" d="M87.668 144.922L37.3862 115.891C33.5656 113.685 34.0455 109.832 38.4558 107.285L86.5951 79.4914C91.007 76.9443 97.6798 76.6684 101.5 78.8743L151.782 107.905C155.603 110.111 155.123 113.964 150.713 116.512L102.574 144.305C98.1615 146.852 91.4886 147.128 87.668 144.922Z" fill="#161616"/>
<path opacity="0.5" d="M189.146 111.823C189.167 111.54 189.168 111.261 189.146 110.981V69.4979L123.241 69.791L105.538 59.5701C99.4925 56.0803 88.9323 56.5174 81.9527 60.5471L65.4977 70.0464L0.00878906 70.3378V111.821H0.0396512C-0.131754 114.183 1.18465 116.463 4.08997 118.141L83.6496 164.074C89.695 167.564 100.254 167.127 107.235 163.097L183.404 119.121C187.029 117.029 188.961 114.377 189.146 111.823Z" fill="#595959"/>
<path d="M189.139 69.4595V54.6072H150.827L105.529 28.4558C99.4837 24.966 88.9252 25.4031 81.9438 29.4329L38.3399 54.6072H0V70.2993H0.0308099C-0.140596 72.6613 1.17581 74.941 4.08113 76.6173L83.6407 122.551C89.6862 126.04 100.246 125.603 107.226 121.574L183.395 77.5978C187.422 75.2752 189.365 72.2636 189.139 69.4595Z" fill="#161616"/>
<path opacity="0.5" d="M189.139 69.4595V54.6072H150.827L105.529 28.4558C99.4837 24.966 88.9252 25.4031 81.9438 29.4329L38.3399 54.6072H0V70.2993H0.0308099C-0.140596 72.6613 1.17581 74.941 4.08113 76.6173L83.6407 122.551C89.6862 126.04 100.246 125.603 107.226 121.574L183.395 77.5978C187.422 75.2752 189.365 72.2636 189.139 69.4595Z" fill="url(#paint4_linear_864_147)"/>
<path d="M105.529 28.4582C102.623 26.7801 98.6708 26.0191 94.5776 26.1202V124.894C99.0033 124.788 103.597 123.672 107.226 121.578L183.395 77.6019C187.421 75.2776 189.365 72.266 189.139 69.4618V54.6095H150.826L105.529 28.4582Z" fill="url(#paint5_linear_864_147)"/>
<path d="M83.6411 106.859L4.08148 60.9262C-1.96399 57.4363 -1.20636 51.3394 5.77498 47.3097L81.9442 3.33393C88.9255 -0.69581 99.4841 -1.13461 105.53 2.35692L185.087 48.2902C191.133 51.78 190.375 57.8769 183.394 61.9066L107.225 105.882C100.247 109.912 89.6865 110.351 83.6411 106.859Z" fill="#161616"/>
<path opacity="0.5" d="M183.395 68.5404L107.226 112.516C100.246 116.546 89.6862 116.985 83.6407 113.493L4.08113 67.56C1.17581 65.8837 -0.140596 63.6023 0.0308099 61.2403H0V64.4918H0.0308099C-0.140596 66.8538 1.17581 69.1335 4.08113 70.8098L83.6407 116.743C89.6862 120.233 100.246 119.796 107.226 115.766L183.395 71.7903C187.422 69.466 189.365 66.4544 189.139 63.652V60.4004C189.365 63.2029 187.422 66.2145 183.395 68.5404Z" fill="url(#paint6_linear_864_147)"/>
<g opacity="0.5">
<path d="M83.6411 106.859L4.08148 60.9262C-1.96399 57.4363 -1.20636 51.3394 5.77498 47.3097L81.9442 3.33393C88.9255 -0.69581 99.4841 -1.13461 105.53 2.35692L185.087 48.2902C191.133 51.78 190.375 57.8769 183.394 61.9066L107.225 105.882C100.247 109.912 89.6865 110.351 83.6411 106.859Z" fill="url(#paint7_linear_864_147)"/>
<path d="M5.94061 47.5966L5.94063 47.5966L82.1098 3.62086C85.5463 1.63728 89.8771 0.531144 94.1016 0.355975C98.3292 0.180674 102.412 0.939067 105.364 2.64382L105.53 2.35692L105.364 2.64384L184.922 48.5771C187.866 50.2765 189.082 52.5603 188.797 54.855C188.508 57.1756 186.672 59.6321 183.228 61.6197L183.394 61.9066L183.228 61.6197L107.059 105.595L107.225 105.882L107.059 105.595C103.624 107.579 99.2939 108.685 95.0695 108.86C90.8419 109.036 86.7585 108.277 83.8068 106.572L83.6411 106.859L83.8067 106.572L4.24714 60.6392L4.08148 60.9262L4.24712 60.6392C1.30322 58.9398 0.0866318 56.656 0.371955 54.3613C0.660489 52.0407 2.49733 49.5842 5.94061 47.5966Z" stroke="white" stroke-opacity="0.2" stroke-width="0.662619"/>
</g>
<path opacity="0.5" d="M86.3127 106.859L6.75314 60.9261C0.707667 57.4362 -0.737322 52.3095 8.44658 47.3096L84.6157 3.33384C88.049 1.35239 92.3462 0.243387 96.549 0.0394145C91.5526 -0.186841 86.1121 0.927303 81.9453 3.33384L5.77611 47.3096C-1.20352 51.3393 -1.96285 57.4362 4.08262 60.9261L83.6422 106.859C86.7137 108.633 90.9527 109.388 95.2943 109.177C91.9211 109.024 88.7484 108.267 86.3127 106.859Z" fill="url(#paint8_linear_864_147)"/>
<path d="M86.0627 96.4729L21.9622 59.4648C17.0908 56.652 17.7027 51.7412 23.3265 48.4931L84.6966 13.0619C90.3204 9.81549 98.829 9.46238 103.699 12.2734L167.799 49.2816C172.67 52.0943 172.058 57.0051 166.435 60.2533L105.065 95.6845C99.4409 98.9326 90.9323 99.2857 86.0627 96.4729Z" fill="#202020"/>
<path d="M23.3245 53.2937L84.6945 17.8625C90.3184 14.6161 98.8269 14.263 103.697 17.0741L167.797 54.0822C169 54.7764 169.866 55.5992 170.406 56.4939C171.82 53.8954 171.004 51.134 167.797 49.2829L103.697 12.2747C98.8252 9.46194 90.3184 9.81505 84.6945 13.0632L23.3245 48.4944C19.0891 50.9404 17.699 54.329 19.3514 57.0544C20.085 55.7054 21.4048 54.4027 23.3245 53.2937Z" fill="#171717"/>
<path d="M56.5335 57.9952L61.8106 55.1893L80.5918 59.5297L78.9681 60.3931L71.9138 49.8173L77.236 46.9875L109.737 64.051L105.452 66.3293L76.1007 50.584L77.2249 50.1825L85.0643 61.8618L83.0346 62.941L62.2506 58.1445L63.0208 57.5387L90.207 74.4352L85.9672 76.6895L56.5335 57.9952Z" fill="white"/>
<path d="M86.1506 42.2475L95.9831 37.0194C99.1403 35.3407 102.24 34.4123 105.281 34.2342C108.323 34.0561 111.024 34.6482 113.383 36.0104C115.241 37.0831 116.338 38.2499 116.673 39.5107C117.009 40.7386 116.57 42.0024 115.356 43.3022L114.336 42.8633C116.945 41.8686 119.529 41.4431 122.089 41.5868C124.678 41.7146 127.049 42.4 129.202 43.643C132.093 45.3117 133.387 47.1094 133.085 49.0361C132.784 50.9298 130.919 52.788 127.492 54.6106L117.118 60.1264L86.1506 42.2475ZM115.882 56.662L124.181 52.2493C126.346 51.0982 127.482 50.0529 127.588 49.1135C127.723 48.1582 126.862 47.1441 125.004 46.0714C123.087 44.9646 121.264 44.4291 119.536 44.465C117.808 44.4679 115.877 45.0369 113.742 46.172L106.119 50.225L102.403 48.0795L108.673 44.746C110.838 43.5949 112.017 42.5752 112.212 41.6869C112.436 40.7826 111.693 39.8366 109.982 38.849C108.272 37.8614 106.596 37.4111 104.956 37.4981C103.346 37.5691 101.474 38.1721 99.3392 39.3073L92.3031 43.0484L92.2926 41.0915L119.411 56.7483L115.882 56.662Z" fill="white"/>
<path d="M234.935 61.7782H245.138L256.474 87.2406H253.334L264.671 61.7782H274.96L277.925 122.818H269.641L267.548 67.0974L269.379 67.4462L256.91 95.6119H252.986L240.429 67.4462L242.26 67.0974L240.167 122.818H231.97L234.935 61.7782ZM309.548 78.3462L313.21 81.8342H294.898V74.8582H317.396V119.766H309.548V78.3462ZM292.282 115.842H330.65V122.818H292.282V115.842ZM308.153 53.3197H318.791V65.0046H308.153V53.3197ZM367.68 123.69C360.936 123.69 355.646 121.627 351.809 117.499C348.031 113.372 346.141 107.587 346.141 100.146C346.141 91.8332 348.06 85.4094 351.897 80.875C355.792 76.2825 361.198 73.9862 368.116 73.9862C371.895 73.9862 375.237 74.7419 378.144 76.2534C381.109 77.7068 383.405 79.8286 385.033 82.619C386.719 85.3513 387.562 88.5487 387.562 92.2111H379.452C379.452 88.1999 378.551 85.3222 376.749 83.5782C374.947 81.8342 372.011 80.9622 367.942 80.9622C364.57 80.9622 361.896 81.5726 359.919 82.7934C357.943 83.9561 356.518 85.8454 355.646 88.4615C354.774 91.0193 354.338 94.5073 354.338 98.9255C354.338 105.262 355.414 109.767 357.565 112.442C359.774 115.116 363.494 116.453 368.726 116.453C371.749 116.453 374.482 116.075 376.923 115.319C379.423 114.505 382.068 113.168 384.858 111.308V118.894C379.626 122.092 373.9 123.69 367.68 123.69ZM413.953 78.3462L417.353 81.8342H403.227V74.8582H419.882L421.801 87.1535V118.894H413.953V78.3462ZM400.785 115.842H440.636V122.818H400.785V115.842ZM419.621 87.0662C421.19 84.2177 423.341 81.6598 426.073 79.3926C428.864 77.1254 431.887 75.3814 435.142 74.1606C438.456 72.8817 441.682 72.2422 444.821 72.2422V80.875C440.287 80.875 435.927 81.6889 431.741 83.3166C427.556 84.8862 423.806 87.1825 420.493 90.2055L419.621 87.0662ZM477.142 123.69C470.689 123.69 465.719 121.656 462.231 117.586C458.743 113.459 456.999 107.646 456.999 100.146C456.999 91.8332 458.917 85.4094 462.754 80.875C466.591 76.2825 471.968 73.9862 478.886 73.9862C485.339 73.9862 490.309 76.0209 493.797 80.0902C497.344 84.1596 499.117 89.9439 499.117 97.4431C499.117 105.814 497.198 112.296 493.361 116.889C489.525 121.423 484.118 123.69 477.142 123.69ZM478.014 116.453C481.211 116.453 483.74 115.871 485.601 114.709C487.461 113.546 488.798 111.686 489.612 109.128C490.484 106.512 490.92 103.024 490.92 98.6639C490.92 94.362 490.484 90.9612 489.612 88.4615C488.798 85.9036 487.461 84.0724 485.601 82.9678C483.74 81.8052 481.211 81.2238 478.014 81.2238C474.875 81.2238 472.375 81.8052 470.515 82.9678C468.655 84.1305 467.288 85.9908 466.416 88.5487C465.603 91.1065 465.196 94.5655 465.196 98.9255C465.196 103.285 465.603 106.744 466.416 109.302C467.288 111.802 468.655 113.633 470.515 114.796C472.375 115.9 474.875 116.453 478.014 116.453ZM515.305 61.7782H534.315C540.419 61.7782 545.157 63.0571 548.529 65.615C551.9 68.1729 553.586 71.7771 553.586 76.4278C553.586 80.0902 552.656 83.2004 550.796 85.7582C548.994 88.258 546.348 90.0892 542.86 91.2519L542.599 89.5079C546.959 90.2055 550.302 91.8913 552.627 94.5655C555.01 97.2396 556.202 100.699 556.202 104.942C556.202 110.639 554.371 115.058 550.709 118.197C547.104 121.278 541.988 122.818 535.361 122.818H515.305V61.7782ZM520.101 115.494H536.146C540.332 115.494 543.296 114.709 545.04 113.139C546.843 111.57 547.744 108.954 547.744 105.291C547.744 101.512 546.843 98.8383 545.04 97.2687C543.296 95.6409 540.361 94.8271 536.233 94.8271H521.496V87.5022H533.617C537.803 87.5022 540.768 86.8046 542.512 85.4094C544.314 84.0142 545.215 81.6308 545.215 78.259C545.215 74.8873 544.314 72.5038 542.512 71.1086C540.768 69.7134 537.832 69.0158 533.704 69.0158H520.101L523.502 65.5278V118.982L520.101 115.494ZM600.295 123.69C594.83 123.69 590.645 122.034 587.738 118.72C584.831 115.348 583.378 110.349 583.378 103.722V61.7782L586.953 65.2662H566.374V58.2902H591.226V103.024C591.226 107.442 592.069 110.785 593.755 113.052C595.499 115.319 598.144 116.453 601.69 116.453C603.55 116.453 605.411 116.191 607.271 115.668C609.189 115.087 611.02 114.244 612.764 113.139V120.726C608.695 122.702 604.539 123.69 600.295 123.69ZM644.475 123.69C638.022 123.69 633.051 121.656 629.563 117.586C626.075 113.459 624.331 107.646 624.331 100.146C624.331 91.8332 626.25 85.4094 630.087 80.875C633.923 76.2825 639.301 73.9862 646.219 73.9862C652.671 73.9862 657.642 76.0209 661.13 80.0902C664.676 84.1596 666.449 89.9439 666.449 97.4431C666.449 105.814 664.531 112.296 660.694 116.889C656.857 121.423 651.451 123.69 644.475 123.69ZM645.347 116.453C648.544 116.453 651.073 115.871 652.933 114.709C654.793 113.546 656.13 111.686 656.944 109.128C657.816 106.512 658.252 103.024 658.252 98.6639C658.252 94.362 657.816 90.9612 656.944 88.4615C656.13 85.9036 654.793 84.0724 652.933 82.9678C651.073 81.8052 648.544 81.2238 645.347 81.2238C642.207 81.2238 639.708 81.8052 637.847 82.9678C635.987 84.1305 634.621 85.9908 633.749 88.5487C632.935 91.1065 632.528 94.5655 632.528 98.9255C632.528 103.285 632.935 106.744 633.749 109.302C634.621 111.802 635.987 113.633 637.847 114.796C639.708 115.9 642.207 116.453 645.347 116.453ZM699.206 140.607C692.695 140.607 687.492 139.386 683.597 136.945C679.702 134.561 677.755 131.219 677.755 126.917C677.755 124.301 678.51 121.83 680.022 119.505C681.591 117.179 684.295 115.29 688.131 113.837L694.061 116.017C691.212 117.063 689.12 118.371 687.783 119.941C686.504 121.452 685.864 123.196 685.864 125.173C685.864 127.789 687.056 129.794 689.439 131.19C691.823 132.643 695.369 133.37 700.078 133.37C703.45 133.37 706.269 132.992 708.536 132.236C710.862 131.538 712.576 130.55 713.681 129.271C714.786 127.992 715.338 126.568 715.338 124.998C715.338 123.196 714.669 121.859 713.332 120.987C712.053 120.057 710.426 119.476 708.449 119.243C706.472 118.952 703.827 118.72 700.514 118.546C696.619 118.371 693.509 118.11 691.183 117.761C688.916 117.354 686.969 116.54 685.341 115.319C683.713 114.04 682.899 112.122 682.899 109.564C682.899 107.646 683.393 105.872 684.382 104.245C685.428 102.617 686.969 101.076 689.003 99.6231L692.927 101.454C690.835 103.489 689.788 105.466 689.788 107.384C689.788 108.721 690.34 109.738 691.445 110.436C692.608 111.075 694.032 111.511 695.718 111.744C697.404 111.918 699.758 112.064 702.781 112.18C707.199 112.354 710.745 112.703 713.419 113.226C716.152 113.691 718.506 114.738 720.483 116.366C722.459 117.993 723.447 120.493 723.447 123.865C723.447 127.12 722.488 129.998 720.57 132.498C718.71 135.055 715.948 137.032 712.286 138.427C708.682 139.881 704.322 140.607 699.206 140.607ZM699.729 104.419C693.974 104.419 689.468 103.14 686.213 100.582C683.016 98.0244 681.417 94.5073 681.417 90.0311C681.417 84.9734 683.161 81.0204 686.649 78.1718C690.195 75.3233 695.078 73.899 701.299 73.899C707.112 73.899 711.646 75.207 714.902 77.823C718.157 80.3809 719.785 83.9852 719.785 88.6359C719.785 93.5772 718.012 97.4431 714.466 100.233C710.92 103.024 706.007 104.419 699.729 104.419ZM700.601 97.2687C704.554 97.2687 707.403 96.6292 709.147 95.3503C710.891 94.0713 711.763 92.0367 711.763 89.2463C711.763 86.3977 710.891 84.334 709.147 83.055C707.403 81.718 704.554 81.0494 700.601 81.0494C696.648 81.0494 693.799 81.6889 692.055 82.9678C690.311 84.1886 689.439 86.1942 689.439 88.9847C689.439 91.8913 690.311 94.0132 692.055 95.3503C693.799 96.6292 696.648 97.2687 700.601 97.2687ZM710.019 78.7822L714.64 65.8766H723.622L713.768 80.1774L710.019 78.7822Z" fill="#0C0C0C"/>
<defs>
<linearGradient id="paint0_linear_864_147" x1="94.5782" y1="132.673" x2="189.156" y2="132.673" gradientUnits="userSpaceOnUse">
<stop stop-color="#1C1B1B"/>
<stop offset="1" stop-color="#161616"/>
</linearGradient>
<linearGradient id="paint1_linear_864_147" x1="0.00135384" y1="111.783" x2="189.17" y2="111.783" gradientUnits="userSpaceOnUse">
<stop stop-color="white"/>
<stop offset="1"/>
</linearGradient>
<linearGradient id="paint2_linear_864_147" x1="0.00108838" y1="111.785" x2="96.5488" y2="111.785" gradientUnits="userSpaceOnUse">
<stop stop-color="white"/>
<stop offset="1"/>
</linearGradient>
<linearGradient id="paint3_linear_864_147" x1="25.7297" y1="166.828" x2="184.064" y2="63.337" gradientUnits="userSpaceOnUse">
<stop stop-color="white"/>
<stop offset="1"/>
</linearGradient>
<linearGradient id="paint4_linear_864_147" x1="-41.8108" y1="75.5049" x2="147.345" y2="75.5049" gradientUnits="userSpaceOnUse">
<stop stop-color="#7E7E7E"/>
<stop offset="1" stop-color="#161616"/>
</linearGradient>
<linearGradient id="paint5_linear_864_147" x1="94.5782" y1="75.503" x2="189.156" y2="75.503" gradientUnits="userSpaceOnUse">
<stop stop-color="#242424"/>
<stop offset="1" stop-color="#0D0D0D"/>
</linearGradient>
<linearGradient id="paint6_linear_864_147" x1="25.7297" y1="109.653" x2="184.064" y2="6.1617" gradientUnits="userSpaceOnUse">
<stop stop-color="white"/>
<stop offset="1"/>
</linearGradient>
<linearGradient id="paint7_linear_864_147" x1="0.00135384" y1="54.6078" x2="189.17" y2="54.6078" gradientUnits="userSpaceOnUse">
<stop stop-color="white"/>
<stop offset="1"/>
</linearGradient>
<linearGradient id="paint8_linear_864_147" x1="0.000600102" y1="54.6106" x2="96.5484" y2="54.6106" gradientUnits="userSpaceOnUse">
<stop stop-color="white"/>
<stop offset="1"/>
</linearGradient>
</defs>
</svg>
