<svg width="190" height="183" viewBox="0 0 190 183" fill="none" xmlns="http://www.w3.org/2000/svg">
<path d="M38.9853 74.1892C39.8543 74.6897 39.8543 75.5039 38.9853 76.0044C38.1163 76.5049 36.709 76.5049 35.8417 76.0044C34.9727 75.5039 34.9727 74.6897 35.8417 74.1892C36.709 73.6869 38.1163 73.6869 38.9853 74.1892Z" fill="#FCCC6B"/>
<path d="M43.8833 71.3607C44.7523 71.8612 44.7523 72.6754 43.8833 73.1759C43.0142 73.6764 41.607 73.6764 40.7397 73.1759C39.8706 72.6754 39.8706 71.8612 40.7397 71.3607C41.607 70.8602 43.0142 70.8602 43.8833 71.3607Z" fill="#FCCC6B"/>
<path d="M48.7782 68.5349C49.6473 69.0354 49.6473 69.8495 48.7782 70.35C47.9092 70.8523 46.502 70.8523 45.6347 70.35C44.7657 69.8495 44.7657 69.0354 45.6347 68.5349C46.5037 68.0326 47.9109 68.0326 48.7782 68.5349Z" fill="#FCCC6B"/>
<path d="M189.139 126.633V111.781H150.827L105.529 85.6297C99.4837 82.1399 88.9252 82.5769 81.9438 86.6067L38.3399 111.781H0V127.473H0.0308099C-0.140596 129.835 1.17581 132.115 4.08113 133.793L83.6407 179.726C89.6862 183.216 100.246 182.779 107.226 178.749L183.395 134.773C187.422 132.449 189.365 129.437 189.139 126.633Z" fill="#1D1D1D"/>
<path d="M105.529 85.6301C102.623 83.952 98.6708 83.191 94.5776 83.2921V182.066C99.0033 181.96 103.597 180.846 107.226 178.75L183.395 134.774C187.421 132.449 189.365 129.438 189.139 126.634V111.781H150.826L105.529 85.6301Z" fill="url(#paint0_linear_866_87)"/>
<path d="M83.6411 164.034L4.08148 118.101C-1.96399 114.611 -1.20636 108.514 5.77498 104.485L81.9442 60.5087C88.9255 56.479 99.4841 56.0402 105.53 59.5317L185.087 105.465C191.133 108.955 190.375 115.052 183.394 119.081L107.225 163.057C100.247 167.087 89.6865 167.526 83.6411 164.034Z" fill="#161616"/>
<path opacity="0.5" d="M83.6411 164.034L4.08148 118.101C-1.96399 114.611 -1.20636 108.514 5.77498 104.485L81.9442 60.5087C88.9255 56.479 99.4841 56.0402 105.53 59.5317L185.087 105.465C191.133 108.955 190.375 115.052 183.394 119.081L107.225 163.057C100.247 167.087 89.6865 167.526 83.6411 164.034Z" fill="url(#paint1_linear_866_87)"/>
<path d="M85.7672 153.881L21.6668 116.873C16.7954 114.06 17.4073 109.149 23.0311 105.901L84.4011 70.4697C90.0249 67.2216 98.5335 66.8702 103.403 69.6812L167.504 106.689C172.375 109.502 171.763 114.413 166.139 117.661L104.769 153.092C99.1454 156.34 90.6368 156.694 85.7672 153.881Z" fill="#F0F0F0"/>
<path d="M23.0316 110.703L84.4015 75.2716C90.0253 72.0235 98.5339 71.6721 103.404 74.4832L167.504 111.491C168.707 112.186 169.573 113.008 170.113 113.903C171.527 111.304 170.711 108.543 167.504 106.69L103.404 69.6821C98.5322 66.8693 90.0253 67.2224 84.4015 70.4688L23.0316 105.9C18.7961 108.346 17.406 111.735 19.0584 114.46C19.7903 113.115 21.1101 111.812 23.0316 110.703Z" fill="white"/>
<path opacity="0.5" d="M86.3132 164.034L6.75363 118.101C0.708155 114.611 -0.736834 109.484 8.44707 104.484L84.6162 60.5086C88.0495 58.5272 92.3467 57.4182 96.5495 57.2142C91.5531 56.988 86.1126 58.1021 81.9457 60.5086L5.7766 104.484C-1.20303 108.514 -1.96237 114.611 4.0831 118.101L83.6426 164.034C86.7142 165.808 90.9531 166.562 95.2948 166.351C91.9216 166.199 88.7489 165.441 86.3132 164.034Z" fill="url(#paint2_linear_866_87)"/>
<path opacity="0.5" d="M183.395 125.716L107.226 169.692C100.246 173.721 89.6862 174.16 83.6407 170.669L4.08113 124.735C1.17581 123.059 -0.140596 120.778 0.0308099 118.417H0V121.669H0.0308099C-0.140596 124.031 1.17581 126.31 4.08113 127.989L83.6407 173.922C89.6862 177.412 100.246 176.975 107.226 172.945L183.395 128.969C187.422 126.645 189.365 123.633 189.139 120.831V117.579C189.365 120.378 187.422 123.39 183.395 125.716Z" fill="url(#paint3_linear_866_87)"/>
<path d="M169.581 121.383C170.45 121.883 170.45 122.697 169.581 123.198C168.714 123.698 167.305 123.698 166.438 123.198C165.569 122.697 165.569 121.883 166.438 121.383C167.305 120.88 168.714 120.88 169.581 121.383Z" fill="white"/>
<path d="M174.478 118.553C175.347 119.054 175.347 119.868 174.478 120.368C173.609 120.869 172.202 120.869 171.335 120.368C170.467 119.866 170.467 119.054 171.335 118.553C172.202 118.053 173.611 118.053 174.478 118.553Z" fill="white"/>
<path d="M179.375 115.727C180.243 116.227 180.243 117.042 179.375 117.542C178.506 118.043 177.099 118.043 176.232 117.542C175.363 117.042 175.363 116.227 176.232 115.727C177.099 115.226 178.506 115.226 179.375 115.727Z" fill="white"/>
<path opacity="0.5" d="M87.668 144.922L37.3862 115.891C33.5656 113.685 34.0455 109.832 38.4558 107.285L86.5951 79.4914C91.007 76.9443 97.6798 76.6684 101.5 78.8743L151.782 107.905C155.603 110.111 155.123 113.964 150.713 116.512L102.574 144.305C98.1615 146.852 91.4886 147.128 87.668 144.922Z" fill="#161616"/>
<path opacity="0.5" d="M189.146 111.823C189.167 111.54 189.168 111.261 189.146 110.981V69.4979L123.241 69.791L105.538 59.5701C99.4925 56.0803 88.9323 56.5174 81.9527 60.5471L65.4977 70.0464L0.00878906 70.3378V111.821H0.0396512C-0.131754 114.183 1.18465 116.463 4.08997 118.141L83.6496 164.074C89.695 167.564 100.254 167.127 107.235 163.097L183.404 119.121C187.029 117.029 188.961 114.377 189.146 111.823Z" fill="#595959"/>
<path d="M189.139 69.4595V54.6072H150.827L105.529 28.4558C99.4837 24.966 88.9252 25.4031 81.9438 29.4329L38.3399 54.6072H0V70.2993H0.0308099C-0.140596 72.6613 1.17581 74.941 4.08113 76.6173L83.6407 122.551C89.6862 126.04 100.246 125.603 107.226 121.574L183.395 77.5978C187.422 75.2752 189.365 72.2636 189.139 69.4595Z" fill="#161616"/>
<path opacity="0.5" d="M189.139 69.4595V54.6072H150.827L105.529 28.4558C99.4837 24.966 88.9252 25.4031 81.9438 29.4329L38.3399 54.6072H0V70.2993H0.0308099C-0.140596 72.6613 1.17581 74.941 4.08113 76.6173L83.6407 122.551C89.6862 126.04 100.246 125.603 107.226 121.574L183.395 77.5978C187.422 75.2752 189.365 72.2636 189.139 69.4595Z" fill="url(#paint4_linear_866_87)"/>
<path d="M105.529 28.4582C102.623 26.7801 98.6708 26.0191 94.5776 26.1202V124.894C99.0033 124.788 103.597 123.672 107.226 121.578L183.395 77.6019C187.421 75.2776 189.365 72.266 189.139 69.4618V54.6095H150.826L105.529 28.4582Z" fill="url(#paint5_linear_866_87)"/>
<path d="M83.6411 106.859L4.08148 60.9262C-1.96399 57.4363 -1.20636 51.3394 5.77498 47.3097L81.9442 3.33393C88.9255 -0.69581 99.4841 -1.13461 105.53 2.35692L185.087 48.2902C191.133 51.78 190.375 57.8769 183.394 61.9066L107.225 105.882C100.247 109.912 89.6865 110.351 83.6411 106.859Z" fill="#161616"/>
<path opacity="0.5" d="M183.395 68.5404L107.226 112.516C100.246 116.546 89.6862 116.985 83.6407 113.493L4.08113 67.56C1.17581 65.8837 -0.140596 63.6023 0.0308099 61.2403H0V64.4918H0.0308099C-0.140596 66.8538 1.17581 69.1335 4.08113 70.8098L83.6407 116.743C89.6862 120.233 100.246 119.796 107.226 115.766L183.395 71.7903C187.422 69.466 189.365 66.4544 189.139 63.652V60.4004C189.365 63.2029 187.422 66.2145 183.395 68.5404Z" fill="url(#paint6_linear_866_87)"/>
<g opacity="0.5">
<path d="M83.6411 106.859L4.08148 60.9262C-1.96399 57.4363 -1.20636 51.3394 5.77498 47.3097L81.9442 3.33393C88.9255 -0.69581 99.4841 -1.13461 105.53 2.35692L185.087 48.2902C191.133 51.78 190.375 57.8769 183.394 61.9066L107.225 105.882C100.247 109.912 89.6865 110.351 83.6411 106.859Z" fill="url(#paint7_linear_866_87)"/>
<path d="M5.94061 47.5966L5.94063 47.5966L82.1098 3.62086C85.5463 1.63728 89.8771 0.531144 94.1016 0.355975C98.3292 0.180674 102.412 0.939067 105.364 2.64382L105.53 2.35692L105.364 2.64384L184.922 48.5771C187.866 50.2765 189.082 52.5603 188.797 54.855C188.508 57.1756 186.672 59.6321 183.228 61.6197L183.394 61.9066L183.228 61.6197L107.059 105.595L107.225 105.882L107.059 105.595C103.624 107.579 99.2939 108.685 95.0695 108.86C90.8419 109.036 86.7585 108.277 83.8068 106.572L83.6411 106.859L83.8067 106.572L4.24714 60.6392L4.08148 60.9262L4.24712 60.6392C1.30322 58.9398 0.0866318 56.656 0.371955 54.3613C0.660489 52.0407 2.49733 49.5842 5.94061 47.5966Z" stroke="white" stroke-opacity="0.2" stroke-width="0.662619"/>
</g>
<path opacity="0.5" d="M86.3127 106.859L6.75314 60.9261C0.707667 57.4362 -0.737322 52.3095 8.44658 47.3096L84.6157 3.33384C88.049 1.35239 92.3462 0.243387 96.549 0.0394145C91.5526 -0.186841 86.1121 0.927303 81.9453 3.33384L5.77611 47.3096C-1.20352 51.3393 -1.96285 57.4362 4.08262 60.9261L83.6422 106.859C86.7137 108.633 90.9527 109.388 95.2943 109.177C91.9211 109.024 88.7484 108.267 86.3127 106.859Z" fill="url(#paint8_linear_866_87)"/>
<path d="M86.0627 96.4729L21.9622 59.4648C17.0908 56.652 17.7027 51.7412 23.3265 48.4931L84.6966 13.0619C90.3204 9.81549 98.829 9.46238 103.699 12.2734L167.799 49.2816C172.67 52.0943 172.058 57.0051 166.435 60.2533L105.065 95.6845C99.4409 98.9326 90.9323 99.2857 86.0627 96.4729Z" fill="#202020"/>
<path d="M23.3245 53.2937L84.6945 17.8625C90.3184 14.6161 98.8269 14.263 103.697 17.0741L167.797 54.0822C169 54.7764 169.866 55.5992 170.406 56.4939C171.82 53.8954 171.004 51.134 167.797 49.2829L103.697 12.2747C98.8252 9.46194 90.3184 9.81505 84.6945 13.0632L23.3245 48.4944C19.0891 50.9404 17.699 54.329 19.3514 57.0544C20.085 55.7054 21.4048 54.4027 23.3245 53.2937Z" fill="#171717"/>
<path d="M56.5335 57.9952L61.8106 55.1893L80.5918 59.5297L78.9681 60.3931L71.9138 49.8173L77.236 46.9875L109.737 64.051L105.452 66.3293L76.1007 50.584L77.2249 50.1825L85.0643 61.8618L83.0346 62.941L62.2506 58.1445L63.0208 57.5387L90.207 74.4352L85.9672 76.6895L56.5335 57.9952Z" fill="white"/>
<path d="M86.1506 42.2475L95.9831 37.0194C99.1403 35.3407 102.24 34.4123 105.281 34.2342C108.323 34.0561 111.024 34.6482 113.383 36.0104C115.241 37.0831 116.338 38.2499 116.673 39.5107C117.009 40.7386 116.57 42.0024 115.356 43.3022L114.336 42.8633C116.945 41.8686 119.529 41.4431 122.089 41.5868C124.678 41.7146 127.049 42.4 129.202 43.643C132.093 45.3117 133.387 47.1094 133.085 49.0361C132.784 50.9298 130.919 52.788 127.492 54.6106L117.118 60.1264L86.1506 42.2475ZM115.882 56.662L124.181 52.2493C126.346 51.0982 127.482 50.0529 127.588 49.1135C127.723 48.1582 126.862 47.1441 125.004 46.0714C123.087 44.9646 121.264 44.4291 119.536 44.465C117.808 44.4679 115.877 45.0369 113.742 46.172L106.119 50.225L102.403 48.0795L108.673 44.746C110.838 43.5949 112.017 42.5752 112.212 41.6869C112.436 40.7826 111.693 39.8366 109.982 38.849C108.272 37.8614 106.596 37.4111 104.956 37.4981C103.346 37.5691 101.474 38.1721 99.3392 39.3073L92.3031 43.0484L92.2926 41.0915L119.411 56.7483L115.882 56.662Z" fill="white"/>
<defs>
<linearGradient id="paint0_linear_866_87" x1="94.5782" y1="132.673" x2="189.156" y2="132.673" gradientUnits="userSpaceOnUse">
<stop stop-color="#1C1B1B"/>
<stop offset="1" stop-color="#161616"/>
</linearGradient>
<linearGradient id="paint1_linear_866_87" x1="0.00135384" y1="111.783" x2="189.17" y2="111.783" gradientUnits="userSpaceOnUse">
<stop stop-color="white"/>
<stop offset="1"/>
</linearGradient>
<linearGradient id="paint2_linear_866_87" x1="0.00108838" y1="111.785" x2="96.5488" y2="111.785" gradientUnits="userSpaceOnUse">
<stop stop-color="white"/>
<stop offset="1"/>
</linearGradient>
<linearGradient id="paint3_linear_866_87" x1="25.7297" y1="166.828" x2="184.064" y2="63.337" gradientUnits="userSpaceOnUse">
<stop stop-color="white"/>
<stop offset="1"/>
</linearGradient>
<linearGradient id="paint4_linear_866_87" x1="-41.8108" y1="75.5049" x2="147.345" y2="75.5049" gradientUnits="userSpaceOnUse">
<stop stop-color="#7E7E7E"/>
<stop offset="1" stop-color="#161616"/>
</linearGradient>
<linearGradient id="paint5_linear_866_87" x1="94.5782" y1="75.503" x2="189.156" y2="75.503" gradientUnits="userSpaceOnUse">
<stop stop-color="#242424"/>
<stop offset="1" stop-color="#0D0D0D"/>
</linearGradient>
<linearGradient id="paint6_linear_866_87" x1="25.7297" y1="109.653" x2="184.064" y2="6.1617" gradientUnits="userSpaceOnUse">
<stop stop-color="white"/>
<stop offset="1"/>
</linearGradient>
<linearGradient id="paint7_linear_866_87" x1="0.00135384" y1="54.6078" x2="189.17" y2="54.6078" gradientUnits="userSpaceOnUse">
<stop stop-color="white"/>
<stop offset="1"/>
</linearGradient>
<linearGradient id="paint8_linear_866_87" x1="0.000600102" y1="54.6106" x2="96.5484" y2="54.6106" gradientUnits="userSpaceOnUse">
<stop stop-color="white"/>
<stop offset="1"/>
</linearGradient>
</defs>
</svg>
